<?xml version="1.0" encoding="UTF-8" standalone="no"?>
<!DOCTYPE svg PUBLIC "-//W3C//DTD SVG 1.1//EN" "http://www.w3.org/Graphics/SVG/1.1/DTD/svg11.dtd">
<svg xmlns="http://www.w3.org/2000/svg" xmlns:xlink="http://www.w3.org/1999/xlink" version="1.1" width="397.55pt" height="114.58pt" viewBox="0 0 397.55 114.58">
<g enable-background="new">
<path transform="matrix(1,0,0,-1,.099998477,85.636)" stroke-width=".19925" stroke-linecap="butt" stroke-miterlimit="10" stroke-linejoin="miter" fill="none" stroke="#929292" d="M 0 0 L 0 56.69362 "/>
<path transform="matrix(1,0,0,-1,.099998477,85.636)" stroke-width=".19925" stroke-linecap="butt" stroke-miterlimit="10" stroke-linejoin="miter" fill="none" stroke="#929292" d="M 28.3468 0 L 28.3468 56.69362 "/>
<path transform="matrix(1,0,0,-1,.099998477,85.636)" stroke-width=".19925" stroke-linecap="butt" stroke-miterlimit="10" stroke-linejoin="miter" fill="none" stroke="#929292" d="M 56.69362 0 L 56.69362 56.69362 "/>
<path transform="matrix(1,0,0,-1,.099998477,85.636)" stroke-width=".19925" stroke-linecap="butt" stroke-miterlimit="10" stroke-linejoin="miter" fill="none" stroke="#929292" d="M 85.04042 0 L 85.04042 56.69362 "/>
<path transform="matrix(1,0,0,-1,.099998477,85.636)" stroke-width=".19925" stroke-linecap="butt" stroke-miterlimit="10" stroke-linejoin="miter" fill="none" stroke="#929292" d="M 113.38724 0 L 113.38724 56.69362 "/>
<path transform="matrix(1,0,0,-1,.099998477,85.636)" stroke-width=".19925" stroke-linecap="butt" stroke-miterlimit="10" stroke-linejoin="miter" fill="none" stroke="#929292" d="M 141.73404 0 L 141.73404 56.69362 "/>
<path transform="matrix(1,0,0,-1,.099998477,85.636)" stroke-width=".19925" stroke-linecap="butt" stroke-miterlimit="10" stroke-linejoin="miter" fill="none" stroke="#929292" d="M 170.08086 0 L 170.08086 56.69362 "/>
<path transform="matrix(1,0,0,-1,.099998477,85.636)" stroke-width=".19925" stroke-linecap="butt" stroke-miterlimit="10" stroke-linejoin="miter" fill="none" stroke="#929292" d="M 0 0 L 170.08086 0 "/>
<path transform="matrix(1,0,0,-1,.099998477,85.636)" stroke-width=".19925" stroke-linecap="butt" stroke-miterlimit="10" stroke-linejoin="miter" fill="none" stroke="#929292" d="M 0 28.3468 L 170.08086 28.3468 "/>
<path transform="matrix(1,0,0,-1,.099998477,85.636)" stroke-width=".19925" stroke-linecap="butt" stroke-miterlimit="10" stroke-linejoin="miter" fill="none" stroke="#929292" d="M 0 56.69362 L 170.08086 56.69362 "/>
<path transform="matrix(1,0,0,-1,.099998477,85.636)" stroke-width=".3985" stroke-linecap="butt" stroke-miterlimit="10" stroke-linejoin="miter" fill="none" stroke="#000000" d="M 14.17339 14.17339 L 42.5202 14.17339 "/>
<path transform="matrix(1,0,0,-1,.099998477,85.636)" stroke-width=".3985" stroke-linecap="butt" stroke-miterlimit="10" stroke-linejoin="miter" fill="none" stroke="#000000" d="M 14.17339 42.5202 L 42.5202 42.5202 "/>
<path transform="matrix(1,0,0,-1,.099998477,85.636)" stroke-width=".3985" stroke-linecap="butt" stroke-miterlimit="10" stroke-linejoin="miter" fill="none" stroke="#000000" d="M 70.867 14.17339 L 99.21382 14.17339 "/>
<path transform="matrix(1,0,0,-1,.099998477,85.636)" stroke-width=".3985" stroke-linecap="butt" stroke-miterlimit="10" stroke-linejoin="miter" fill="none" stroke="#000000" d="M 70.867 42.5202 L 99.21382 42.5202 "/>
<path transform="matrix(1,0,0,-1,.099998477,85.636)" stroke-width=".3985" stroke-linecap="butt" stroke-miterlimit="10" stroke-linejoin="miter" fill="none" stroke="#000000" d="M 127.56062 14.17339 L 155.90744 14.17339 "/>
<path transform="matrix(1,0,0,-1,.099998477,85.636)" stroke-width=".3985" stroke-linecap="butt" stroke-miterlimit="10" stroke-linejoin="miter" fill="none" stroke="#000000" d="M 127.56062 42.5202 L 155.90744 42.5202 "/>
<path transform="matrix(1,0,0,-1,.099998477,85.636)" stroke-width=".3985" stroke-linecap="butt" stroke-miterlimit="10" stroke-linejoin="miter" fill="none" stroke="#000000" d="M 14.17339 14.17339 L 14.17339 42.5202 "/>
<path transform="matrix(1,0,0,-1,.099998477,85.636)" stroke-width=".3985" stroke-linecap="butt" stroke-miterlimit="10" stroke-linejoin="miter" fill="none" stroke="#000000" d="M 42.5202 14.17339 L 42.5202 42.5202 "/>
<path transform="matrix(1,0,0,-1,.099998477,85.636)" stroke-width=".3985" stroke-linecap="butt" stroke-miterlimit="10" stroke-linejoin="miter" fill="none" stroke="#000000" d="M 70.867 14.17339 L 70.867 42.5202 "/>
<path transform="matrix(1,0,0,-1,.099998477,85.636)" stroke-width=".3985" stroke-linecap="butt" stroke-miterlimit="10" stroke-linejoin="miter" fill="none" stroke="#000000" d="M 99.21382 14.17339 L 99.21382 42.5202 "/>
<path transform="matrix(1,0,0,-1,.099998477,85.636)" stroke-width=".3985" stroke-linecap="butt" stroke-miterlimit="10" stroke-linejoin="miter" fill="none" stroke="#000000" d="M 127.56062 14.17339 L 127.56062 42.5202 "/>
<path transform="matrix(1,0,0,-1,.099998477,85.636)" stroke-width=".3985" stroke-linecap="butt" stroke-miterlimit="10" stroke-linejoin="miter" fill="none" stroke="#000000" d="M 155.90744 14.17339 L 155.90744 42.5202 "/>
<path transform="matrix(1,0,0,-1,.099998477,85.636)" stroke-width="1.19553" stroke-linecap="butt" stroke-miterlimit="10" stroke-linejoin="miter" fill="none" stroke="#ff0000" d="M 56.69362 -28.3468 L 56.69362 85.04042 "/>
<path transform="matrix(1,0,0,-1,.099998477,85.636)" stroke-width=".19925" stroke-linecap="butt" stroke-miterlimit="10" stroke-linejoin="miter" fill="none" stroke="#929292" d="M 226.77448 0 L 226.77448 56.69362 "/>
<path transform="matrix(1,0,0,-1,.099998477,85.636)" stroke-width=".19925" stroke-linecap="butt" stroke-miterlimit="10" stroke-linejoin="miter" fill="none" stroke="#929292" d="M 255.12128 0 L 255.12128 56.69362 "/>
<path transform="matrix(1,0,0,-1,.099998477,85.636)" stroke-width=".19925" stroke-linecap="butt" stroke-miterlimit="10" stroke-linejoin="miter" fill="none" stroke="#929292" d="M 283.4681 0 L 283.4681 56.69362 "/>
<path transform="matrix(1,0,0,-1,.099998477,85.636)" stroke-width=".19925" stroke-linecap="butt" stroke-miterlimit="10" stroke-linejoin="miter" fill="none" stroke="#929292" d="M 311.8149 0 L 311.8149 56.69362 "/>
<path transform="matrix(1,0,0,-1,.099998477,85.636)" stroke-width=".19925" stroke-linecap="butt" stroke-miterlimit="10" stroke-linejoin="miter" fill="none" stroke="#929292" d="M 340.1617 0 L 340.1617 56.69362 "/>
<path transform="matrix(1,0,0,-1,.099998477,85.636)" stroke-width=".19925" stroke-linecap="butt" stroke-miterlimit="10" stroke-linejoin="miter" fill="none" stroke="#929292" d="M 368.5085 0 L 368.5085 56.69362 "/>
<path transform="matrix(1,0,0,-1,.099998477,85.636)" stroke-width=".19925" stroke-linecap="butt" stroke-miterlimit="10" stroke-linejoin="miter" fill="none" stroke="#929292" d="M 396.85533 0 L 396.85533 56.69362 "/>
<path transform="matrix(1,0,0,-1,.099998477,85.636)" stroke-width=".19925" stroke-linecap="butt" stroke-miterlimit="10" stroke-linejoin="miter" fill="none" stroke="#929292" d="M 226.77448 0 L 396.85533 0 "/>
<path transform="matrix(1,0,0,-1,.099998477,85.636)" stroke-width=".19925" stroke-linecap="butt" stroke-miterlimit="10" stroke-linejoin="miter" fill="none" stroke="#929292" d="M 226.77448 28.3468 L 396.85533 28.3468 "/>
<path transform="matrix(1,0,0,-1,.099998477,85.636)" stroke-width=".19925" stroke-linecap="butt" stroke-miterlimit="10" stroke-linejoin="miter" fill="none" stroke="#929292" d="M 226.77448 56.69362 L 396.85533 56.69362 "/>
<path transform="matrix(1,0,0,-1,.099998477,85.636)" stroke-width=".3985" stroke-linecap="butt" stroke-miterlimit="10" stroke-linejoin="miter" fill="none" stroke="#000000" d="M 240.94788 14.17339 L 269.29469 14.17339 "/>
<path transform="matrix(1,0,0,-1,.099998477,85.636)" stroke-width=".3985" stroke-linecap="butt" stroke-miterlimit="10" stroke-linejoin="miter" fill="none" stroke="#000000" d="M 269.29469 14.17339 L 240.94788 42.5202 "/>
<path transform="matrix(1,0,0,-1,.099998477,85.636)" stroke-width=".3985" stroke-linecap="butt" stroke-miterlimit="10" stroke-linejoin="miter" fill="none" stroke="#000000" d="M 240.94788 42.5202 L 240.94788 14.17339 "/>
<path transform="matrix(1,0,0,-1,.099998477,85.636)" stroke-width=".3985" stroke-linecap="butt" stroke-miterlimit="10" stroke-linejoin="miter" fill="none" stroke="#000000" d="M 297.6415 14.17339 L 382.68193 14.17339 "/>
<path transform="matrix(1,0,0,-1,.099998477,85.636)" stroke-width=".3985" stroke-linecap="butt" stroke-miterlimit="10" stroke-linejoin="miter" fill="none" stroke="#000000" d="M 382.68193 14.17339 L 382.68193 42.5202 "/>
<path transform="matrix(1,0,0,-1,.099998477,85.636)" stroke-width=".3985" stroke-linecap="butt" stroke-miterlimit="10" stroke-linejoin="miter" fill="none" stroke="#000000" d="M 382.68193 42.5202 L 269.29469 42.5202 "/>
<path transform="matrix(1,0,0,-1,.099998477,85.636)" stroke-width=".3985" stroke-linecap="butt" stroke-miterlimit="10" stroke-linejoin="miter" fill="none" stroke="#000000" d="M 269.29469 42.5202 L 297.6415 14.17339 "/>
<path transform="matrix(1,0,0,-1,.099998477,85.636)" stroke-width="1.19553" stroke-linecap="butt" stroke-miterlimit="10" stroke-linejoin="miter" fill="none" stroke="#ff0000" d="M 396.85533 -28.3468 L 396.85533 85.04042 "/>
</g>
</svg>
